<?xml version="1.0" encoding="iso-8859-1"?>
<!-- Uploaded to: SVG Repo, www.svgrepo.com, Generator: SVG Repo Mixer Tools -->
<svg version="1.1" id="Layer_1" xmlns="http://www.w3.org/2000/svg" xmlns:xlink="http://www.w3.org/1999/xlink" 
	 viewBox="0 0 512 512" xml:space="preserve">
<circle style="fill:#FFDC64;" cx="256" cy="127.733" r="119.716"/>
<path style="fill:#8CE16E;" d="M417.617,232.057c-4.845-6.459-12.448-10.261-20.523-10.261H166.213
	c-8.074,0-15.677,3.802-20.523,10.261L127.733,256h307.841L417.617,232.057z"/>
<path style="fill:#9BF57D;" d="M481.227,269.518c-1.69-7.885-8.658-13.518-16.723-13.518H16.568c-4.722,0-8.551,3.829-8.551,8.551
	v173.637c0,8.36,6.045,15.496,14.291,16.869l88.323,14.721h85.513h188.124h85.51h25.655c4.722,0,8.551-3.829,8.551-8.551v-85.511
	L481.227,269.518z"/>
<path style="fill:#8CE16E;" d="M495.432,444.125h-2.256c-7.601-29.491-34.288-51.307-66.153-51.307s-58.561,21.817-66.167,51.307
	h-44.998V290.205h-85.511v153.921h-10.809c-7.599-29.491-34.287-51.307-66.152-51.307c-30.505,0-56.226,20.012-65.035,47.594
	l-66.045-11.007c-8.247-1.375-14.29-8.509-14.29-16.869v25.653c0,8.36,6.044,15.496,14.29,16.869l88.324,14.721h85.514h188.123
	h85.509h25.656c4.722,0,8.551-3.829,8.551-8.551v-25.653C503.983,440.296,500.155,444.125,495.432,444.125z"/>
<path style="fill:#5B5D6E;" d="M50.772,290.205c-4.722,0-8.551,3.829-8.551,8.551v68.409c0,4.722,3.829,8.551,8.551,8.551h453.211
	l-18.324-85.512H50.772z"/>
<path style="fill:#9BF57D;" d="M304.18,75.941c1.909,0.255,3.357,1.704,3.613,3.613c1.537,11.494,4.753,52.1-21.532,78.385
	c-17.052,17.052-44.411,17.341-61.109,0.643s-16.41-44.057,0.643-61.109C252.08,71.186,292.687,74.402,304.18,75.941z"/>
<path style="fill:#8CE16E;" d="M304.18,75.94c-11.493-1.537-52.1-4.753-78.385,21.532c-17.052,17.052-17.341,44.411-0.643,61.109
	l81.455-81.455C305.974,76.493,305.135,76.068,304.18,75.94z"/>
<rect x="230.347" y="290.205" style="fill:#464655;" width="85.511" height="85.511"/>
<g>
	<circle style="fill:#5B5D6E;" cx="427.023" cy="461.228" r="42.756"/>
	<circle style="fill:#5B5D6E;" cx="153.386" cy="461.228" r="42.756"/>
</g>
<path d="M511.822,374.037l-22.757-106.198c-2.465-11.504-12.794-19.856-24.561-19.856h-24.921l-15.552-20.737
	c-6.325-8.434-16.395-13.468-26.936-13.468H350.29c21.445-23.382,33.442-53.801,33.442-86.046C383.733,57.3,326.433,0,256,0
	S128.267,57.3,128.267,127.733c0,32.377,12.095,62.908,33.701,86.326c-8.952,1.152-17.223,5.896-22.692,13.188l-15.552,20.737
	H16.568C7.432,247.983,0,255.415,0,264.551v173.637c0,12.33,8.827,22.75,20.99,24.777l84.143,14.024
	c6.647,20.302,25.76,35.011,48.254,35.011c22.196,0,41.097-14.322,47.982-34.205H379.04C385.926,497.678,404.827,512,427.022,512
	c22.194,0,41.097-14.322,47.982-34.205h20.429c9.136,0,16.568-7.432,16.568-16.568v-85.511
	C512,375.152,511.94,374.588,511.822,374.037z M494.067,367.699h-76.13v-69.478h60.392c0.283,0,0.563-0.016,0.839-0.045
	L494.067,367.699z M323.875,367.699v-69.478h78.029v69.478H323.875z M50.772,367.699c-0.295,0-0.534-0.239-0.534-0.534v-68.409
	c0-0.295,0.239-0.534,0.534-0.534h77.495v69.478H50.772z M144.301,298.221h78.029v69.478h-78.029V298.221z M238.363,298.221h26.722
	v69.478h-26.722V298.221z M307.841,383.733v78.029h-69.478v-78.029H307.841z M281.119,367.699v-69.478h26.722v69.478H281.119z
	 M256,16.033c61.592,0,111.699,50.108,111.699,111.699c0,33.467-14.787,64.692-40.644,86.046H184.943
	c-25.857-21.354-40.643-52.578-40.643-86.046C144.301,66.141,194.408,16.033,256,16.033z M152.104,236.867
	c3.314-4.418,8.587-7.055,14.109-7.055h230.881c5.522,0,10.797,2.637,14.109,7.055l8.337,11.116H143.766L152.104,236.867z
	 M153.387,495.967c-19.155,0-34.739-15.584-34.739-34.739c0-19.155,15.584-34.739,34.739-34.739s34.739,15.584,34.739,34.739
	C188.126,480.382,172.543,495.967,153.387,495.967z M153.387,410.455c-27.691,0-50.262,22.288-50.75,49.864L23.625,447.15
	c-4.4-0.733-7.592-4.502-7.592-8.962V264.551c0-0.295,0.239-0.534,0.534-0.534H435.57c0.003,0,0.006,0,0.01,0
	c0.002,0,0.004,0,0.006,0h28.917c4.255,0,7.992,3.021,8.884,7.182l2.357,10.989H50.772c-9.136,0-16.568,7.432-16.568,16.568v68.409
	c0,9.136,7.432,16.568,16.568,16.568H222.33v78.029h-18.183c0.002-0.178,0.014-0.355,0.014-0.534
	C204.16,433.232,181.384,410.455,153.387,410.455z M427.023,495.967c-19.155,0-34.739-15.584-34.739-34.739
	c0-19.155,15.584-34.739,34.739-34.739c19.155,0,34.739,15.584,34.739,34.739C461.762,480.382,446.178,495.967,427.023,495.967z
	 M495.432,461.762h-17.651c0.002-0.178,0.014-0.355,0.014-0.534c0-27.995-22.777-50.772-50.772-50.772s-50.772,22.777-50.772,50.772
	c0,0.18,0.012,0.356,0.014,0.534h-52.39v-78.029h172.092v77.495C495.967,461.523,495.727,461.762,495.432,461.762z"/>
<path d="M427.023,444.66c-9.136,0-16.568,7.432-16.568,16.568s7.432,16.568,16.568,16.568s16.568-7.432,16.568-16.568
	S436.159,444.66,427.023,444.66z"/>
<path d="M153.387,444.66c-9.136,0-16.568,7.432-16.568,16.568s7.432,16.568,16.568,16.568s16.568-7.432,16.568-16.568
	S162.523,444.66,153.387,444.66z"/>
<path d="M204.693,187.056c2.051,0,4.103-0.782,5.668-2.348l15.251-15.251c8.741,6.302,19.094,9.453,29.501,9.453
	c13.269,0,26.623-5.111,36.815-15.303c33.503-33.504,23.681-86.469,23.247-88.709c-0.623-3.209-3.133-5.72-6.342-6.342
	c-2.238-0.435-55.204-10.257-88.709,23.247c-18.187,18.187-20.188,46.431-5.852,66.317l-15.25,15.25
	c-3.131,3.131-3.131,8.207,0,11.337C200.59,186.274,202.642,187.056,204.693,187.056z M231.464,103.141
	c11.343-11.343,27.127-17.986,46.915-19.745c3.558-0.316,6.937-0.437,10.031-0.437c4.723,0,8.779,0.283,11.782,0.589
	c1.351,13.214,2.251,46.872-19.598,68.721c-11.896,11.897-29.964,13.813-43.418,5.627l33.046-33.046
	c3.131-3.131,3.131-8.207,0-11.337c-3.131-3.131-8.207-3.131-11.337,0l-33.046,33.046
	C217.651,133.105,219.567,115.038,231.464,103.141z"/>
</svg>