<?xml version="1.0" encoding="iso-8859-1"?>
<!-- Uploaded to: SVG Repo, www.svgrepo.com, Generator: SVG Repo Mixer Tools -->
<svg version="1.1" id="Layer_1" xmlns="http://www.w3.org/2000/svg" xmlns:xlink="http://www.w3.org/1999/xlink" 
	 viewBox="0 0 512 512" xml:space="preserve">
<rect x="280.857" y="173.894" style="fill:#F4B2B0;" width="73.391" height="189.4"/>
<path style="fill:#B3404A;" d="M371.891,376.566h-91.035c-7.326,0-13.264-5.938-13.264-13.264c0-7.326,5.938-13.264,13.264-13.264
	h91.035c7.326,0,13.264,5.938,13.264,13.264C385.155,370.628,379.217,376.566,371.891,376.566z"/>
<g>
	<circle style="fill:#F4B2B0;" cx="98.381" cy="363.294" r="41.723"/>
	<circle style="fill:#F4B2B0;" cx="413.619" cy="363.294" r="41.723"/>
</g>
<g>
	<path style="fill:#B3404A;" d="M31.056,309.048c7.326,0,13.264-5.938,13.264-13.264V142.843c0-12.463,10.141-22.604,22.605-22.604
		h315.993c12.463,0,22.605,10.141,22.605,22.604v29.142c0,7.326,5.938,13.264,13.264,13.264c7.326,0,13.264-5.938,13.264-13.264
		v-29.142c0-27.091-22.041-49.132-49.133-49.132H66.923c-27.092,0-49.133,22.041-49.133,49.132v152.941
		C17.791,303.11,23.73,309.048,31.056,309.048z"/>
	<path style="fill:#B3404A;" d="M498.736,350.038h-4.527v-51.196c0-19.838-9.571-38.659-25.603-50.344l-42.008-30.618
		c-0.058-0.042-0.119-0.076-0.178-0.117c-0.212-0.15-0.432-0.29-0.654-0.428c-0.155-0.097-0.309-0.194-0.467-0.284
		c-0.214-0.121-0.432-0.229-0.654-0.338c-0.176-0.088-0.35-0.176-0.529-0.255c-0.204-0.09-0.414-0.168-0.622-0.248
		c-0.202-0.077-0.403-0.157-0.608-0.223c-0.191-0.062-0.387-0.113-0.582-0.167c-0.229-0.062-0.458-0.127-0.688-0.178
		c-0.179-0.038-0.361-0.068-0.543-0.099c-0.253-0.044-0.507-0.088-0.76-0.117c-0.172-0.02-0.346-0.031-0.52-0.044
		c-0.268-0.02-0.535-0.037-0.801-0.041c-0.069-0.001-0.137-0.011-0.206-0.011h-51.274v-41.436c0-7.326-5.938-13.264-13.264-13.264
		h-73.391c-7.326,0-13.264,5.938-13.264,13.264v41.436h-17.348v-41.436c0-7.326-5.938-13.264-13.264-13.264h-53.785
		c-7.326,0-13.264,5.938-13.264,13.264v41.436H142.78v-41.436c0-7.326-5.938-13.264-13.264-13.264H75.731
		c-7.326,0-13.264,5.938-13.264,13.264v54.7c0,7.326,5.938,13.264,13.264,13.264h30.537h23.247h53.679
		c7.326,0,13.264-5.938,13.264-13.264v-41.436h27.257v41.436c0,7.326,5.938,13.264,13.264,13.264h30.613v121.438
		c0,7.326,5.938,13.264,13.264,13.264h73.391c2.045,0,3.975-0.476,5.706-1.304c5.477,24.585,27.449,43.027,53.662,43.027
		c25.746,0,47.408-17.791,53.359-41.723h31.761c7.326,0,13.264-5.938,13.264-13.264C512,355.971,506.062,350.038,498.736,350.038z
		 M116.252,215.334h-9.983H88.995v-28.172h27.257L116.252,215.334L116.252,215.334z M340.983,350.038H294.12V187.162h46.863V350.038
		z M413.614,391.759c-15.693,0-28.458-12.767-28.458-28.458c0-15.693,12.767-28.458,28.458-28.458s28.458,12.767,28.458,28.458
		C442.072,378.993,429.305,391.759,413.614,391.759z M467.68,350.038h-0.708c-5.952-23.931-27.612-41.723-53.359-41.723
		c-19.294,0-36.287,9.997-46.103,25.075v-91.526h46.954l38.515,28.072c9.205,6.71,14.701,17.515,14.701,28.905V350.038z"/>
	<path style="fill:#B3404A;" d="M215.544,350.038h-63.797c-5.952-23.931-27.612-41.723-53.359-41.723
		c-25.746,0-47.408,17.791-53.359,41.723H13.264C5.938,350.038,0,355.976,0,363.302c0,7.326,5.938,13.264,13.264,13.264h31.763
		c5.952,23.931,27.612,41.723,53.359,41.723s47.409-17.791,53.359-41.723h63.798c7.326,0,13.264-5.938,13.264-13.264
		C228.808,355.976,222.869,350.038,215.544,350.038z M98.386,391.759c-15.692,0-28.458-12.767-28.458-28.458
		c0-15.693,12.767-28.458,28.458-28.458c15.693,0,28.458,12.767,28.458,28.458C126.845,378.993,114.078,391.759,98.386,391.759z"/>
</g>
</svg>