<?xml version="1.0" encoding="iso-8859-1"?>
<!-- Uploaded to: SVG Repo, www.svgrepo.com, Generator: SVG Repo Mixer Tools -->
<svg version="1.1" id="Layer_1" xmlns="http://www.w3.org/2000/svg" xmlns:xlink="http://www.w3.org/1999/xlink" 
	 viewBox="0 0 512.008 512.008" xml:space="preserve">
<g>
	<rect x="50.958" y="265.424" style="fill:#F4B2B0;" width="423.287" height="84.355"/>
	<path style="fill:#F4B2B0;" d="M187.722,265.42l-20.489-113.434c-45.722-29.589-87.195-29.078-87.195-29.078l39.93,142.512H187.722
		z"/>
	<polygon style="fill:#F4B2B0;" points="381.699,265.42 299.909,165.601 218.118,265.42 	"/>
</g>
<path style="fill:#B3404A;" d="M432.269,233.329c32.625-16.483,65.554-14.99,65.88-14.977c7.239,0.376,13.426-5.144,13.837-12.382
	c0.411-7.248-5.132-13.457-12.38-13.87c-1.55-0.083-37.028-1.854-74.499,15.5l14.415-37.854c1.492-3.916,1.025-8.311-1.254-11.828
	c-2.281-3.518-6.102-5.737-10.286-5.975c-0.212-0.012-2.162-0.117-5.517-0.117c-15.898,0-56.413,2.231-98.711,22.135l-13.61-16.609
	c-0.02-0.024-0.039-0.047-0.059-0.071l-0.009-0.012c-0.016-0.02-0.035-0.037-0.051-0.057c-0.275-0.33-0.567-0.649-0.878-0.957
	c-0.125-0.124-0.26-0.235-0.39-0.354c-0.172-0.156-0.335-0.321-0.518-0.469c-0.043-0.035-0.091-0.064-0.135-0.1
	c-0.152-0.121-0.312-0.231-0.469-0.346c-0.226-0.164-0.452-0.327-0.685-0.475c-0.149-0.095-0.301-0.18-0.454-0.268
	c-0.258-0.15-0.518-0.294-0.783-0.425c-0.142-0.07-0.285-0.135-0.43-0.2c-0.287-0.129-0.574-0.247-0.866-0.354
	c-0.141-0.051-0.281-0.101-0.423-0.147c-0.305-0.1-0.611-0.185-0.92-0.262c-0.141-0.036-0.28-0.071-0.422-0.103
	c-0.327-0.07-0.657-0.122-0.989-0.167c-0.129-0.017-0.255-0.041-0.384-0.054c-0.423-0.043-0.848-0.068-1.271-0.071
	c-0.034,0-0.068-0.005-0.103-0.005c-0.004,0-0.008,0-0.012,0c-0.461,0-0.922,0.028-1.379,0.078
	c-0.135,0.014-0.267,0.041-0.401,0.059c-0.319,0.043-0.638,0.093-0.954,0.16c-0.159,0.034-0.315,0.078-0.472,0.117
	c-0.29,0.074-0.58,0.152-0.865,0.246c-0.152,0.05-0.304,0.104-0.455,0.16c-0.288,0.105-0.572,0.222-0.852,0.348
	c-0.137,0.062-0.273,0.124-0.409,0.191c-0.288,0.142-0.571,0.297-0.849,0.46c-0.12,0.07-0.241,0.137-0.358,0.212
	c-0.284,0.179-0.56,0.375-0.831,0.577c-0.104,0.078-0.21,0.149-0.312,0.229c-0.277,0.22-0.544,0.459-0.807,0.703
	c-0.083,0.078-0.172,0.149-0.254,0.227c-0.334,0.329-0.656,0.676-0.96,1.046l-77.845,95.004h-13.189l-18.535-102.625
	c-0.001-0.005-0.003-0.011-0.004-0.016l-10.03-55.533c19.122,4.83,51.47,16.403,84.069,43.471
	c5.589,4.639,13.875,3.869,18.512-1.715c4.638-5.586,3.87-13.874-1.715-18.512c-57.095-47.408-113.728-52.555-116.11-52.752
	c-4.08-0.334-8.066,1.242-10.811,4.267c-2.746,3.023-3.928,7.151-3.204,11.171l8.509,47.112
	c-36.136-16.788-65.361-17.382-69.211-17.382l-0.3,0.001c-4.078,0.063-7.915,2.015-10.353,5.283
	c-2.437,3.268-3.243,7.481-2.143,11.409l8.614,30.744c-26.043-10.982-48.236-12.455-58.189-12.455c-3.399,0-5.43,0.168-5.804,0.202
	c-4.067,0.367-7.734,2.604-9.92,6.054c-2.186,3.449-2.646,7.719-1.379,11.692l37.069,101.316l0.038,1.416v71.387h-9.202
	c-7.259,0-13.146,5.887-13.146,13.146v84.356c0,7.259,5.887,13.146,13.146,13.146h337.84c7.259,0,13.146-5.887,13.146-13.146
	c0-7.259-5.887-13.146-13.146-13.146H41.756v-58.065h441.691v58.065h-49.25c-7.259,0-13.146,5.887-13.146,13.146
	c0,7.259,5.887,13.146,13.146,13.146h62.395c7.259,0,13.146-5.887,13.146-13.146v-84.356c0-7.259-5.887-13.146-13.146-13.146h-9.202
	v-71.387l0,0l0,0c0-7.26-5.887-13.146-13.146-13.146h-71.34c1.265-0.998,2.533-1.993,3.819-2.956
	C414.142,243.754,422.721,238.153,432.269,233.329z M407.959,178.757l-19.6,51.47c-3.998,3.089-7.681,6.149-11.038,9.109
	l-36.308-44.311C366.977,183.924,391.953,180.062,407.959,178.757z M299.909,186.343l54.024,65.932H245.886L299.909,186.343z
	 M64.104,278.567H461.1v58.065H64.104C64.104,336.633,64.104,278.567,64.104,278.567z M155.331,160.044l16.658,92.229h-42.051
	L97.923,138.011C111.951,140.569,132.843,146.465,155.331,160.044z M85.678,191.757l16.955,60.518H61.666l-29.336-80.179
	C45.869,173.968,65.204,178.957,85.678,191.757z"/>
</svg>