<?xml version="1.0" encoding="iso-8859-1"?>
<!-- Uploaded to: SVG Repo, www.svgrepo.com, Generator: SVG Repo Mixer Tools -->
<svg version="1.1" id="Layer_1" xmlns="http://www.w3.org/2000/svg" xmlns:xlink="http://www.w3.org/1999/xlink" 
	 viewBox="0 0 512 512" xml:space="preserve">
<rect x="105.792" y="231.784" style="fill:#F4B2B0;" width="300.414" height="134.628"/>
<g>
	<path style="fill:#B3404A;" d="M486.822,482.424h-58.005l-49.708-101.23h27.1c8.167,0,14.788-6.62,14.788-14.788V231.776
		c0-8.167-6.62-14.788-14.788-14.788H270.788V103.571c0-8.167-6.62-14.788-14.788-14.788s-14.788,6.62-14.788,14.788v113.418
		H120.579V73.982c0-24.486,19.921-44.406,44.406-44.406h182.03c24.486,0,44.406,19.921,44.406,44.406v84.576
		c0,8.167,6.62,14.788,14.788,14.788s14.788-6.62,14.788-14.788V73.982C420.998,33.188,387.809,0,347.016,0h-182.03
		c-40.795,0-73.982,33.188-73.982,73.982v157.794v134.631c0,8.167,6.62,14.788,14.788,14.788h27.1l-49.708,101.23H25.179
		c-8.167,0-14.788,6.62-14.788,14.788c0,8.167,6.62,14.788,14.788,14.788h67.218c5.639,0,10.788-3.207,13.273-8.269l9.559-19.467
		h187.167c8.167,0,14.788-6.62,14.788-14.788c0-8.167-6.62-14.788-14.788-14.788H129.751l11.647-23.72h116.607
		c8.167,0,14.788-6.62,14.788-14.788s-6.62-14.788-14.788-14.788H155.921l9.918-20.2h180.322l60.168,122.536
		c2.486,5.062,7.635,8.269,13.273,8.269h67.218c8.167,0,14.788-6.62,14.788-14.788S494.99,482.424,486.822,482.424z
		 M120.579,246.564h270.842v105.055H120.579V246.564z"/>
	<path style="fill:#B3404A;" d="M175.2,342.962c-24.19,0-43.871-19.681-43.871-43.871s19.681-43.871,43.871-43.871
		s43.871,19.68,43.871,43.871c0,8.167-6.62,14.788-14.788,14.788c-8.167,0-14.788-6.62-14.788-14.788
		c0-7.882-6.412-14.295-14.295-14.295c-7.883,0-14.295,6.412-14.295,14.295c0,7.883,6.412,14.295,14.295,14.295
		c8.167,0,14.788,6.62,14.788,14.788C189.987,336.342,183.367,342.962,175.2,342.962z"/>
	<path style="fill:#B3404A;" d="M336.802,342.962c-24.19,0-43.871-19.681-43.871-43.871s19.68-43.871,43.871-43.871
		s43.871,19.68,43.871,43.871c0,8.167-6.621,14.788-14.788,14.788s-14.788-6.62-14.788-14.788c0-7.882-6.412-14.295-14.295-14.295
		c-7.882,0-14.295,6.412-14.295,14.295c0,7.883,6.412,14.295,14.295,14.295c8.167,0,14.788,6.62,14.788,14.788
		C351.59,336.342,344.969,342.962,336.802,342.962z"/>
</g>
</svg>