<?xml version="1.0" encoding="iso-8859-1"?>
<!-- Uploaded to: SVG Repo, www.svgrepo.com, Generator: SVG Repo Mixer Tools -->
<svg version="1.1" id="Layer_1" xmlns="http://www.w3.org/2000/svg" xmlns:xlink="http://www.w3.org/1999/xlink" 
	 viewBox="0 0 390.383 390.383" xml:space="preserve">
<path style="fill:#FFFFFF;" d="M324.16,94.772H66.22c-5.947,0-10.861,4.848-10.861,10.861v195.62
	c0,5.948,4.848,10.861,10.861,10.861h258.004c5.947,0,10.861-4.848,10.861-10.861v-195.62
	C335.02,99.62,330.172,94.772,324.16,94.772z"/>
<rect x="77.016" y="116.428" style="fill:#FFC10D;" width="236.283" height="173.964"/>
<path style="fill:#56ACE0;" d="M280.846,138.149H109.533c-5.947,0-10.861,4.848-10.861,10.861v49.261
	c0,5.947,4.848,10.861,10.861,10.861h171.248c5.947,0,10.861-4.848,10.861-10.861v-49.325
	C291.642,142.998,286.794,138.149,280.846,138.149z"/>
<g>
	<path style="fill:#194F82;" d="M355.061,373.333l-27.669-39.564c16.291-1.616,29.285-15.709,29.285-32.517v-195.62
		c0-17.907-14.61-32.517-32.517-32.517H206.05V21.657h63.935l14.093,29.802c2.715,5.43,8.145,7.564,14.61,4.848
		c5.43-2.715,7.564-9.244,4.848-14.61L286.729,5.947C285.113,2.133,281.299,0,276.968,0H114.446c-4.331,0-8.145,2.198-9.762,5.947
		L87.877,41.697c-2.715,5.43-0.517,11.895,4.848,14.61c5.43,2.715,11.895,0.517,14.61-4.848l14.093-29.802h63.935v51.459H66.22
		c-17.907,0-32.517,14.61-32.517,32.517v195.62c0,16.808,12.994,30.901,29.285,32.517l-27.669,39.564
		c-3.232,4.848-2.198,11.895,2.715,15.192c4.848,3.232,11.895,2.198,15.192-2.715l8.663-11.895h266.667l8.663,11.895
		c3.232,4.848,10.279,5.947,15.192,2.715C357.259,385.293,358.293,378.246,355.061,373.333z M77.016,351.677l12.477-17.907h211.394
		l12.477,17.907H77.016z M66.22,312.113c-5.947,0-10.861-4.848-10.861-10.861v-195.62c0-5.947,4.848-10.861,10.861-10.861h258.004
		c5.947,0,10.861,4.848,10.861,10.861v195.62c0,5.947-4.848,10.861-10.861,10.861L66.22,312.113L66.22,312.113z"/>
	<path style="fill:#194F82;" d="M280.846,116.428H109.533c-17.907,0-32.517,14.61-32.517,32.517v49.325
		c0,17.907,14.61,32.517,32.517,32.517h171.248c17.907,0,32.517-14.61,32.517-32.517v-49.325
		C313.364,131.103,298.689,116.428,280.846,116.428z M291.642,198.271L291.642,198.271c0,5.947-4.849,10.861-10.861,10.861H109.533
		c-5.947,0-10.861-4.848-10.861-10.861v-49.325c0-5.947,4.848-10.861,10.861-10.861h171.248c5.947,0,10.861,4.848,10.861,10.861
		L291.642,198.271L291.642,198.271z"/>
	<path style="fill:#194F82;" d="M121.493,267.119H107.4c-5.947,0-10.861,4.848-10.861,10.861c0,5.947,4.848,10.861,10.861,10.861
		h14.093c5.947,0,10.861-4.848,10.861-10.861S127.44,267.119,121.493,267.119z"/>
	<path style="fill:#194F82;" d="M282.98,267.119h-14.093c-5.947,0-10.861,4.848-10.861,10.861c0,5.947,4.848,10.861,10.861,10.861
		h14.093c5.947,0,10.861-4.848,10.861-10.861C293.84,271.968,288.927,267.119,282.98,267.119z"/>
</g>
</svg>